<!-- Generator: Adobe Illustrator 19.0.0, SVG Export Plug-In  -->
<svg version="1.1"
	 xmlns="http://www.w3.org/2000/svg" xmlns:xlink="http://www.w3.org/1999/xlink" xmlns:a="http://ns.adobe.com/AdobeSVGViewerExtensions/3.0/"
	 x="0px" y="0px" width="374px" height="353.41px" viewBox="0 0 374 353.41" style="enable-background:new 0 0 374 353.41;"
	 xml:space="preserve">
<style type="text/css">
	.st0{fill:#F38B00;}
</style>
<defs>
</defs>
<g>
	<polygon class="st0" points="337.346,272.91 337.346,231.641 254.809,192.037 254.809,353.41 286.166,353.41 286.166,326.91 
		300.666,302.91 315.166,326.91 315.166,353.41 337.346,353.41 374,353.41 374,272.91 	"/>
	<polygon class="st0" points="36.652,272.91 0,272.91 0,353.41 36.652,353.41 58.834,353.41 58.834,326.91 73.334,302.91 
		87.834,326.91 87.834,353.41 119.189,353.41 119.189,191.95 36.652,231.641 	"/>
	<path class="st0" d="M129.189,188.115V353.41H172.5v-59.5l14.5-24l14.5,24v59.5h43.309V188.115L187,99.696L129.189,188.115z
		 M209.332,178.577v13.666h-15.5v18.667h-13.666v-18.667h-15.5v-13.666h15.5v-12.334h13.666v12.334H209.332z"/>
	<polygon class="st0" points="187,72.157 255.203,176.466 349,221.042 349,205.142 265.014,165.228 191.368,52.586 191.368,22.278 
		208.842,22.278 208.842,13.541 191.368,13.541 191.368,0 182.632,0 182.632,13.541 165.158,13.541 165.158,22.278 182.632,22.278 
		182.632,52.586 108.986,165.228 25,205.142 25,221.042 118.797,176.466 	"/>
</g>
</svg>